<svg viewBox="0 -1 511.99999 511" xmlns="http://www.w3.org/2000/svg"><path d="m142.027344 136.480469 11.191406-11.191407-99.488281-99.355468c-3.089844-3.089844-8.097657-3.089844-11.1875 0-3.089844 3.089844-3.089844 8.097656 0 11.1875zm0 0" fill="#d8d6d4"/><path d="m124.402344 153.246094 11.191406-11.191406-98.972656-99.011719c-3.089844-3.089844-8.097656-3.089844-11.1875 0-3.089844 3.089843-3.089844 8.097656 0 11.1875zm0 0" fill="#d8d6d4"/><path d="m211.867188 136.140625c-.382813-15.996094-6.605469-31.160156-17.277344-42.746094l-107.457032-90.394531c-4.226562-3.558594-10.472656-3.289062-14.378906.617188-4.15625 4.160156-4.15625 10.898437 0 15.054687l81.972656 81.976563c5.027344 5.027343 5.027344 13.175781 0 18.203124l-36.375 36.375c-5.027343 5.027344-13.175781 5.027344-18.203124 0l-81.976563-81.972656c-4.15625-4.15625-10.898437-4.15625-15.054687 0-3.90625 3.90625-4.175782 10.152344-.617188 14.378906l90.394531 107.457032c11.585938 10.671875 26.75 16.894531 42.746094 17.28125l31.078125.09375c14.355469.046875 28.042969 6.09375 37.75 16.671875l247.160156 271.351562c12.078125 13.066407 34.632813 11.433594 47.210938-1.148437 12.582031-12.582032 14.214844-35.136719 1.148437-47.210938l-271.351562-247.160156c-10.578125-9.707031-16.625-23.394531-16.671875-37.75zm0 0" fill="#e2e2e2"/><path d="m508.886719 470.664062c-.054688-.539062-.121094-1.074218-.203125-1.609374-.160156-1.0625-.371094-2.121094-.636719-3.160157-.132813-.519531-.277344-1.035156-.4375-1.546875-1.433594-4.597656-3.945313-8.820312-7.621094-12.21875l-271.351562-247.160156c-1.625-1.488281-3.128907-3.082031-4.535157-4.75-.882812-1.046875-1.734374-2.117188-2.527343-3.222656-.515625-.71875-1.007813-1.449219-1.484375-2.191406-1.898438-2.96875-3.488282-6.121094-4.742188-9.40625-2.191406-5.746094-3.359375-11.898438-3.382812-18.183594l-.097656-31.074219c-.117188-5-.808594-9.917969-2.027344-14.667969-.488282-1.902344-1.058594-3.777344-1.710938-5.621094-2.941406-8.289062-7.535156-15.941406-13.539062-22.457031l-107.457032-90.394531c-.527343-.445312-1.085937-.828125-1.671874-1.15625-1.457032-.8125-3.058594-1.253906-4.671876-1.332031-.644531-.03125-1.292968-.003907-1.929687.082031-2.242187.300781-4.398437 1.316406-6.105469 3.023438-4.160156 4.160156-4.160156 10.898437 0 15.054687l81.972656 81.976563c1.570313 1.570312 2.652344 3.445312 3.242188 5.4375.234375.796874.390625 1.609374.46875 2.429687s.078125 1.648437 0 2.46875c-.117188 1.230469-.410156 2.445313-.882812 3.609375-.628907 1.546875-1.570313 3-2.828126 4.257812l-11.273437 11.273438 7.820313 6.582031c10.671874 11.585938 16.898437 26.75 17.28125 42.746094 0 0 0 .335937.003906.9375.0625 16.1875 9.140625 30.769531 23.25 38.707031.011718.007813.023437.015625.039062.023438.28125.160156.554688.328125.835938.492187.410156.238281.816406.484375 1.21875.738281.285156.175782.5625.355469.84375.539063.417968.273437.828125.554687 1.238281.839844.238281.167969.480469.332031.714844.5.625.453125 1.238281.914062 1.84375 1.394531.125.097656.25.207031.375.308594.5.402344.992187.816406 1.476562 1.238281.203125.175781.398438.355469.597657.535156.425781.382813.84375.773438 1.257812 1.171875.179688.171875.359375.339844.535156.515625.574219.566407 1.136719 1.144531 1.683594 1.742188l195.597656 214.742187 56.609375 51.5625c3.839844 3.546875 6.398438 8.003906 7.792969 12.84375 2.179688.628906 4.441406 1.019532 6.730469 1.179688 1.507812.105468 3.027343.113281 4.546875.023437.042968-.003906.085937-.007812.128906-.007812 1.496094-.09375 2.996094-.28125 4.480469-.5625.050781-.007813.105469-.023438.160156-.03125.675781-.132813 1.351563-.28125 2.023437-.453125.078126-.019532.152344-.035156.226563-.054688.722656-.1875 1.445313-.394531 2.15625-.625.011719-.003906.019531-.007812.03125-.011718.664063-.214844 1.316406-.457032 1.96875-.707032.132813-.054687.265625-.105468.394531-.160156.648438-.257812 1.292969-.535156 1.925782-.832031.011718-.007813.027343-.011719.039062-.019531.644531-.304688 1.277344-.632813 1.902344-.976563.144531-.078125.289062-.160156.429687-.242187.503907-.285157 1-.582032 1.488281-.894532.125-.078125.253907-.15625.378907-.238281.585937-.378906 1.15625-.777344 1.71875-1.195313.109375-.082031.214843-.167968.320312-.25.457031-.347656.90625-.710937 1.34375-1.082031.148438-.121093.292969-.246093.4375-.375.527344-.460937 1.042969-.933593 1.539063-1.429687 6.683594-6.683594 10.277344-16.179688 10.21875-25.429688-.007813-1.085937-.0625-2.171875-.171875-3.246094zm0 0" fill="#d8d6d4"/><path d="m414.964844 192.542969c19.628906-1.65625 37.46875-12.070313 48.5625-28.347657l24.519531-35.976562c20.082031-29.464844 27.972656-65.566406 22.011719-100.726562-.972656-5.75-3.886719-10.777344-8.011719-14.433594s-9.464844-5.945313-15.292969-6.226563c-35.621094-1.699219-70.515625 10.460938-97.359375 33.933594l-32.777343 28.652344c-14.832032 12.96875-23.03125 31.925781-22.320313 51.613281l1.769531 31.023438c.8125 14.335937-4.394531 28.363281-14.375 38.6875l-256.019531 263.007812c-12.316406 12.839844-9.332031 35.257812 3.980469 47.058594 13.316406 11.804687 35.925781 12.078125 47.195312-1.6875l230.417969-285.707032c9.054687-11.144531 22.355469-17.996093 36.683594-18.90625zm0 0" fill="#e2e2e2"/><path d="m510.058594 27.492188c-.972656-5.753907-3.886719-10.777344-8.011719-14.4375-1.546875-1.371094-3.265625-2.546876-5.113281-3.5-1.851563-.953126-3.832032-1.679688-5.910156-2.144532-1.386719-.3125-2.8125-.507812-4.269532-.578125-1.277344-.0625-2.558594-.097656-3.835937-.125-.386719-.007812-.769531-.007812-1.15625-.011719-.914063-.011718-1.828125-.015624-2.738281-.007812-.417969.003906-.835938.011719-1.253907.015625-.949219.019531-1.894531.046875-2.839843.082031-.335938.011719-.671876.019532-1.007813.035156-1.292969.058594-2.582031.132813-3.871094.226563.316407 28.070313-7.933593 55.761719-23.933593 79.242187l-24.519532 35.972657c-8.714844 12.792969-21.597656 21.960937-36.238281 26.109375-11.207031 3.171875-22.167969 7.167968-32.546875 12.453125-9.636719 4.90625-19.113281 9.808593-19.230469 10.167969-.035156.101562-.070312.207031-.105469.308593-.234374.703125-.480468 1.398438-.742187 2.085938-.054687.140625-.113281.277343-.167969.417969-.257812.648437-.519531 1.296874-.800781 1.9375-.082031.179687-.167969.355468-.246094.53125-.273437.597656-.546875 1.191406-.84375 1.78125-.105469.214843-.226562.425781-.335937.644531-.28125.542969-.566406 1.085937-.867188 1.617187-.144531.257813-.300781.507813-.453125.761719-.285156.484375-.570312.972656-.871093 1.449219-.1875.300781-.390626.589844-.589844.886718-.28125.421876-.554688.851563-.847656 1.265626-.246094.347656-.507813.683593-.761719 1.023437-.265625.355469-.523438.71875-.796875 1.066406-.328125.417969-.675782.824219-1.019532 1.234375-.21875.261719-.429687.53125-.652343.789063-.578125.660156-1.171875 1.3125-1.789063 1.945312l-256.019531 263.011719c-12.316406 12.839844-9.332031 35.257812 3.980469 47.058594 13.316406 11.804687 35.925781 12.078125 47.195312-1.6875l230.417969-285.707032c9.054687-11.144531 22.355469-17.996093 36.683594-18.90625l31.015625-1.964843c19.628906-1.65625 37.46875-12.070313 48.5625-28.347657l24.519531-35.976562c20.082031-29.464844 27.972656-65.566406 22.011719-100.726562zm0 0" fill="#d8d6d4"/></svg>